<!-- Generator: Adobe Illustrator 22.0.1, SVG Export Plug-In  -->
<svg version="1.1"
   xmlns="http://www.w3.org/2000/svg" xmlns:xlink="http://www.w3.org/1999/xlink" xmlns:a="http://ns.adobe.com/AdobeSVGViewerExtensions/3.0/"
   x="0px" y="0px" width="377.1px" height="112.8px" viewBox="0 0 377.1 112.8" style="enable-background:new 0 0 377.1 112.8;"
   xml:space="preserve">
<style type="text/css">
  .st0{fill:#FFFFFF;}
</style>
<defs>
</defs>
<path class="st0" d="M154.4,0c2.3,0,4.3,0.8,6,2.5c1.7,1.7,2.5,3.7,2.5,6c0,2.3-0.8,4.3-2.5,5.9c-1.7,1.7-3.6,2.5-6,2.5
  c-2.3,0-4.3-0.8-5.9-2.5c-1.7-1.7-2.5-3.6-2.5-5.9c0-2.3,0.8-4.3,2.5-6C150.1,0.8,152.1,0,154.4,0z M149.3,32.8h10.3v79.7h-10.3
  V32.8z"/>
<path class="st0" d="M213.7,2.1v10c-3.8-1.6-7-2.4-9.7-2.4c-2,0-3.7,0.4-5,1.2s-2.1,1.7-2.5,2.8c-0.3,1.1-0.5,3.8-0.5,8.4l0,10.8
  h16.6v8.9H196l-0.1,70.8h-10.3V41.7h-10.5v-8.9h10.5V20.4c0-5.7,0.5-9.8,1.6-12.2c1-2.4,2.8-4.4,5.3-5.9c2.5-1.5,5.6-2.2,9.1-2.2
  C205.1,0,209,0.7,213.7,2.1z"/>
<path class="st0" d="M231.5,0c2.3,0,4.3,0.8,6,2.5c1.7,1.7,2.5,3.7,2.5,6c0,2.3-0.8,4.3-2.5,5.9c-1.7,1.7-3.6,2.5-6,2.5
  c-2.3,0-4.3-0.8-5.9-2.5c-1.7-1.7-2.5-3.6-2.5-5.9c0-2.3,0.8-4.3,2.5-6C227.2,0.8,229.2,0,231.5,0z M226.4,32.8h10.3v79.7h-10.3
  V32.8z"/>
<path class="st0" d="M285.5,0c2.3,0,4.3,0.8,6,2.5c1.7,1.7,2.5,3.7,2.5,6c0,2.3-0.8,4.3-2.5,5.9c-1.7,1.7-3.6,2.5-6,2.5
  c-2.3,0-4.3-0.8-5.9-2.5c-1.7-1.7-2.5-3.6-2.5-5.9c0-2.3,0.8-4.3,2.5-6C281.3,0.8,283.2,0,285.5,0z M280.4,32.8h10.3v79.7h-10.3
  V32.8z"/>
<path class="st0" d="M377.1,2.3H367v37.6c-0.1-0.1-0.2-0.2-0.3-0.4c-1.5-1.4-3.2-2.7-5-3.8c-5.2-3.1-11.7-4.7-19.4-4.7
  s-14.2,1.6-19.4,4.7c-1.9,1.2-3.6,2.5-5.2,4c-2.7,2.6-4.8,5.6-6.4,9.1c-2.4,5.2-3.7,12.8-3.8,22.7c0.2,10.3,1.4,18,3.8,23.3
  c1.7,3.6,3.9,6.8,6.6,9.4c1.5,1.4,3.2,2.7,5,3.8c5.2,3.1,11.7,4.7,19.4,4.7s14.2-1.6,19.4-4.7c1.9-1.2,3.6-2.5,5.2-4
  c0,0,0.1-0.1,0.1-0.1v8.8h10.1V2.3z M366.7,68.2c0,10-0.5,16.5-1.5,19.6c-1.5,4.5-4.3,8.1-8.3,10.9c-4,2.8-8.8,4.1-14.6,4.1
  c-5.7,0-10.6-1.4-14.8-4.2c-4.1-2.8-6.9-6.7-8.4-11.6c-0.6-2.1-1-5.3-1.2-9.5v-1.9c0-10,0.5-16.5,1.5-19.6c1.5-4.5,4.3-8.1,8.3-10.9
  c4-2.8,8.8-4.1,14.6-4.1c5.7,0,10.6,1.4,14.8,4.2c4.1,2.8,6.9,6.7,8.4,11.6c0.6,2.1,1,5.3,1.2,9.5V68.2z"/>
<line class="st0" x1="59" y1="112.8" x2="59.3" y2="112.8"/>
<path class="st0" d="M124.9,48.9c-2.6-5.6-6.4-10-11.6-13.2S101.6,31,93.8,31s-14.2,1.6-19.4,4.7c-1.7,1.1-3.3,2.3-4.7,3.6
  c-2.9,2.6-5.1,5.8-6.9,9.5c-1.9,4.2-3.1,10-3.6,17.4v2.1c0,3.8-0.1,7.1-0.2,9.9c-0.2,4.5-0.7,7.7-1.3,9.6c-1.5,4.5-4.3,8.1-8.3,10.9
  c-4,2.8-8.8,4.1-14.6,4.1c-5.7,0-10.6-1.4-14.8-4.2c-4.1-2.8-6.9-6.7-8.4-11.6c-1-3.4-1.5-9.7-1.5-18.8V31H0v38.4
  c0,11.3,1.3,19.8,3.8,25.5s6.4,10,11.6,13.2s11.7,4.7,19.4,4.7s14.2-1.6,19.4-4.7c1.7-1.1,3.3-2.3,4.7-3.6c0.1-0.1,0.2-0.1,0.2-0.2
  c2.8-2.6,5-5.7,6.6-9.3c1.9-4.2,3.1-10,3.6-17.4v-2.1c0-3.8,0.1-7.1,0.2-9.9c0.2-4.5,0.7-7.7,1.3-9.6c1.5-4.5,4.3-8.1,8.3-10.9
  c4-2.8,8.8-4.1,14.6-4.1c5.7,0,10.6,1.4,14.8,4.2c4.1,2.8,6.9,6.7,8.4,11.6c1,3.4,1.5,9.7,1.5,18.8v37.2h10.3V74.4
  C128.8,63.1,127.5,54.6,124.9,48.9z"/>
<g>
  <path class="st0" d="M267.1,97.3c-1.8-1.8-3.9-2.6-6.4-2.6s-4.6,0.9-6.4,2.6c-1.8,1.8-2.6,3.9-2.6,6.4c0,2.5,0.9,4.6,2.6,6.4
    c1.8,1.8,3.9,2.7,6.4,2.7s4.6-0.9,6.4-2.7c1.8-1.8,2.6-3.9,2.6-6.4C269.7,101.2,268.8,99,267.1,97.3z M257.4,105.2
    c-0.8,0-1.5-0.7-1.5-1.5c0-0.9,0.7-1.6,1.5-1.5c0.8,0,1.5,0.7,1.5,1.6C259,104.4,258.4,105.3,257.4,105.2z M260.4,106.6
    c-0.1,0-0.1,0.1-0.2,0.1c-0.1,0-0.3-0.1-0.4-0.1c-0.1,0-0.1-0.2,0-0.3c0.1-0.2,0.3-0.5,0.5-0.7c1.1-1.5,1.1-2.3,0-3.8
    c-0.1-0.2-0.3-0.4-0.4-0.6c0-0.1,0-0.3,0.1-0.4c0.1-0.1,0.2-0.1,0.4-0.1c0.1,0,0.2,0.1,0.3,0.2c0.4,0.5,0.9,1,1.2,1.6
    c0.2,0.3,0.4,0.8,0.4,1.4c0,0.1,0,0.4-0.1,0.6C261.7,105.3,261.2,106,260.4,106.6z M265.3,105.2c-0.5,1.1-1.3,2.1-2.3,2.9
    c-0.1,0.1-0.3,0.2-0.5,0.2c-0.3,0-0.5-0.4-0.4-0.7c0.1-0.2,0.3-0.4,0.5-0.7c0.6-0.7,1.1-1.5,1.3-2.4c0.2-0.5,0.2-1,0-1.6
    c-0.3-0.9-0.8-1.7-1.3-2.4c-0.2-0.2-0.4-0.4-0.5-0.7c-0.1-0.2-0.1-0.4,0.1-0.6c0.2-0.2,0.4-0.2,0.6-0.1c0.1,0,0.2,0.1,0.3,0.2
    c0.8,0.8,1.6,1.6,2.1,2.7c0.3,0.5,0.4,1.1,0.5,1.9C265.6,104.3,265.5,104.8,265.3,105.2z"/>
</g>
</svg>
