<!-- Generator: Adobe Illustrator 22.0.1, SVG Export Plug-In  -->
<svg version="1.1"
	 xmlns="http://www.w3.org/2000/svg" xmlns:xlink="http://www.w3.org/1999/xlink" xmlns:a="http://ns.adobe.com/AdobeSVGViewerExtensions/3.0/"
	 x="0px" y="0px" width="172px" height="172px" viewBox="0 0 172 172" style="enable-background:new 0 0 172 172;"
	 xml:space="preserve">
<style type="text/css">
	.st0{fill:#37A477;}
	.st1{fill:#1FCF94;}
</style>
<defs>
</defs>
<rect class="st0" width="172" height="172"/>
<g>
	<path class="st1" d="M134.8,23.3H37.2c-7.7,0-13.9,6.2-13.9,13.9v97.5c0,7.7,6.2,13.9,13.9,13.9h97.5c7.7,0,13.9-6.2,13.9-13.9
		V37.2C148.7,29.5,142.5,23.3,134.8,23.3z M141.7,134.8c0,3.8-3.1,7-7,7H37.2c-3.8,0-7-3.1-7-7V37.2c0-3.8,3.1-7,7-7h97.5
		c3.8,0,7,3.1,7,7V134.8z"/>
	<g>
		<path class="st1" d="M86,37.3c-12,0-21.7,9.3-21.7,20.8c0,18.4,9.7,33.3,21.7,33.3s21.7-14.9,21.7-33.3
			C107.7,46.6,98,37.3,86,37.3z"/>
		<g>
			<path class="st1" d="M122,99.5c-5.9-3.5-12.2-6.1-17.8-8.1c-4.5,5-11,8.1-18.2,8.1s-13.7-3.1-18.2-8.1c-5.7,2-11.9,4.6-17.8,8.1
				c-16.5,9.7-12.2,35.2-12.2,35.2h96.5C134.3,134.7,138.5,109.2,122,99.5z"/>
		</g>
	</g>
</g>
</svg>
